<?xml version="1.0" encoding="iso-8859-1"?>
<!-- Generator: Adobe Illustrator 19.0.0, SVG Export Plug-In . SVG Version: 6.00 Build 0)  -->
<svg version="1.1" id="Layer_1" xmlns="http://www.w3.org/2000/svg" xmlns:xlink="http://www.w3.org/1999/xlink" x="0px" y="0px"
	 viewBox="0 0 512.001 512.001" style="enable-background:new 0 0 512.001 512.001;" xml:space="preserve">
<g>
	<g>
		<path d="M439.306,225.354v-42.052c0-14.104-1.614-28.169-4.796-41.806c-0.592-2.539-2.213-4.719-4.473-6.02
			c-2.259-1.3-4.959-1.604-7.453-0.84c-1.642,0.503-3.3,0.945-4.965,1.358c-0.313-14.04-3.403-37.014-18.477-54.054
			c-11.584-13.094-27.826-20.172-48.316-21.089c-8.721-10.775-19.625-19.777-32.114-26.239c-5.521-2.857-11.262-5.177-17.141-6.965
			c0.658-3.734,1.528-7.429,2.631-11.067c0.758-2.496,0.446-5.194-0.862-7.452c-1.307-2.257-3.492-3.871-6.033-4.456
			C283.838,1.573,269.941,0,256.004,0C154.932,0,72.703,82.229,72.703,183.301v42.049c-23.406,9.923-39.222,33.299-39.222,59.139
			c0,26.102,16.1,49.641,39.869,59.408c4.54,54.652,33.371,104.704,79.101,136.064c0.321,0.232,0.65,0.456,0.974,0.675l0.338,0.228
			c30.264,20.37,65.618,31.136,102.241,31.136c36.622,0,71.977-10.767,102.296-31.174l0.271-0.183
			c0.329-0.221,0.66-0.447,0.985-0.682c45.729-31.361,74.562-81.414,79.101-136.068c23.767-9.77,39.863-33.306,39.863-59.405
			C478.52,258.651,462.707,235.278,439.306,225.354z M72.703,322.347c-12.432-8.26-20.395-22.424-20.395-37.857
			c0-15.419,7.965-29.595,20.395-37.857V322.347z M310.06,51.335c20.362,10.532,35.045,28.479,41.345,50.534
			c1.181,4.134,4.949,6.83,9.047,6.83c0.856,0,1.726-0.118,2.591-0.365c4.999-1.428,7.894-6.638,6.465-11.636
			c-1.474-5.157-3.362-10.158-5.613-14.969c8.633,2.333,15.693,6.547,21.087,12.618c12.051,13.562,13.833,33.565,13.82,44.348
			c-1.334,0.056-2.67,0.092-4.009,0.092c-51.228,0-93.054-40.907-94.598-91.768C303.556,48.237,306.852,49.674,310.06,51.335z
			 M420.48,328.699h-0.001c0,54.308-26.792,105.076-71.669,135.803c-0.088,0.06-0.174,0.122-0.26,0.185
			c-0.162,0.121-0.334,0.232-0.5,0.344l-0.318,0.215c-27.146,18.271-58.865,27.928-91.729,27.928
			c-32.863,0-64.583-9.657-91.666-27.885l-0.385-0.261c-0.164-0.112-0.334-0.222-0.495-0.34c-0.085-0.063-0.172-0.124-0.26-0.185
			c-44.876-30.727-71.669-81.495-71.669-135.803V183.301C91.53,92.61,165.313,18.827,256.005,18.827
			c9.28,0,18.54,0.776,27.632,2.312c-1.555,7.542-2.341,15.235-2.341,22.975c0,62.583,50.916,113.499,113.499,113.499
			c7.856,0,15.654-0.806,23.292-2.402c1.59,9.245,2.394,18.658,2.394,28.09V328.699z M439.306,322.342v-75.705
			c12.424,8.264,20.387,22.436,20.387,37.852C459.693,299.92,451.734,314.081,439.306,322.342z"/>
	</g>
</g>
<g>
	<g>
		<path d="M393.977,276.033c-3.996-7.916-11.97-12.835-20.809-12.835h-55.135h-33.945c-5.199,0-9.414,4.215-9.414,9.414
			c0,5.199,4.215,9.414,9.414,9.414h24.785c1.457,19.02,9.681,60.241,52.561,79.465c1.25,0.561,2.558,0.826,3.844,0.826
			c3.596,0,7.03-2.072,8.595-5.565c2.126-4.744,0.005-10.313-4.739-12.441c-15.531-6.962-25.281-17.727-31.42-28.799
			c5.292,2.117,11.058,3.293,17.097,3.293c14.606,0,28.508-7.024,37.188-18.788C397.158,293.025,397.915,283.834,393.977,276.033z
			 M376.852,288.837c-5.224,7.079-13.257,11.139-22.039,11.139c-11.783,0-21.852-7.487-25.698-17.952h44.054
			c2.478,0,3.625,1.743,4.003,2.493C377.606,285.38,378.143,287.086,376.852,288.837z"/>
	</g>
</g>
<g>
	<g>
		<path d="M309.678,385.928c-13.367-15.882-32.931-24.992-53.674-24.992c-20.742,0-40.307,9.11-53.675,24.993
			c-8.299,9.859-10.049,23.299-4.569,35.075c5.59,12.013,17.254,19.476,30.44,19.476h46.193v19.106c0,5.199,4.215,9.414,9.414,9.414
			c5.199,0,9.414-4.215,9.414-9.414v-20.43c9.157-2.641,16.815-9.103,21.026-18.152
			C319.727,409.228,317.976,395.787,309.678,385.928z M283.809,421.653h-55.606c-1.678,0-3.281-0.271-4.777-0.771
			c9.11-7.498,20.567-11.684,32.576-11.684c12.009,0,23.467,4.187,32.578,11.685C287.083,421.383,285.483,421.653,283.809,421.653z
			 M256,390.371c-15.471,0-30.281,5.071-42.358,14.233c0.412-2.351,1.443-4.595,3.091-6.552c9.783-11.624,24.096-18.29,39.271-18.29
			c15.174,0,29.488,6.666,39.272,18.29c1.648,1.958,2.681,4.205,3.091,6.558C286.289,395.445,271.475,390.371,256,390.371z"/>
	</g>
</g>
<g>
	<g>
		<path d="M205.515,82.472c-3.675-3.676-9.636-3.676-13.312,0l-11.13,11.13l-5.303-5.304c-3.675-3.676-9.636-3.676-13.312,0
			c-3.676,3.676-3.676,9.636,0,13.312l5.303,5.304l-12.447,12.447l-5.304-5.304c-3.676-3.676-9.637-3.676-13.312,0
			c-3.676,3.676-3.676,9.637,0,13.312l5.304,5.304l-11.131,11.13c-3.676,3.676-3.676,9.637,0,13.312
			c1.836,1.838,4.246,2.756,6.655,2.756s4.818-0.919,6.656-2.758l11.131-11.13l5.304,5.304c1.837,1.838,4.247,2.758,6.656,2.758
			c2.409,0,4.818-0.919,6.656-2.758c3.676-3.676,3.676-9.637,0-13.312l-5.303-5.303l12.447-12.447l5.303,5.303
			c1.838,1.839,4.247,2.758,6.656,2.758c2.409,0,4.818-0.919,6.656-2.758c3.676-3.676,3.676-9.636,0-13.312l-5.303-5.303
			l11.131-11.131C209.191,92.108,209.191,86.147,205.515,82.472z"/>
	</g>
</g>
<g>
	<g>
		<path d="M227.921,230.509h-89.081c-5.199,0-9.414,4.215-9.414,9.413c0,5.199,4.215,9.414,9.414,9.414h89.081
			c5.199,0,9.413-4.215,9.413-9.414C237.335,234.724,233.12,230.509,227.921,230.509z"/>
	</g>
</g>
<g>
	<g>
		<path d="M373.168,230.509h-89.081c-5.199,0-9.414,4.215-9.414,9.413c0,5.199,4.215,9.414,9.414,9.414h89.081
			c5.199,0,9.414-4.215,9.414-9.414C382.581,234.724,378.367,230.509,373.168,230.509z"/>
	</g>
</g>
<g>
	<g>
		<path d="M276.715,319.974h-33.148l-6.31-48.575c-0.609-4.69-4.605-8.201-9.334-8.201h-33.945h-55.135
			c-8.839,0-16.814,4.918-20.81,12.835c-3.94,7.802-3.182,16.992,1.977,23.982c8.68,11.766,22.584,18.789,37.188,18.789
			c5.981,0,11.694-1.155,16.944-3.233c-6.143,11.079-15.867,21.836-31.268,28.739c-4.744,2.126-6.866,7.696-4.739,12.441
			c1.566,3.494,4.999,5.565,8.595,5.565c1.286,0,2.594-0.265,3.844-0.826c42.88-19.222,51.104-60.443,52.561-79.465h16.516v0
			l6.31,48.575c0.609,4.69,4.605,8.201,9.336,8.201h41.418c5.199,0,9.414-4.215,9.414-9.413
			C286.128,324.188,281.913,319.974,276.715,319.974z M157.197,299.977c-8.783,0-16.816-4.059-22.04-11.139
			c-1.292-1.751-0.756-3.458-0.32-4.319c0.378-0.749,1.526-2.493,4.004-2.493h44.054
			C179.048,292.491,168.98,299.977,157.197,299.977z"/>
	</g>
</g>
<g>
</g>
<g>
</g>
<g>
</g>
<g>
</g>
<g>
</g>
<g>
</g>
<g>
</g>
<g>
</g>
<g>
</g>
<g>
</g>
<g>
</g>
<g>
</g>
<g>
</g>
<g>
</g>
<g>
</g>
</svg>
